<svg xmlns="http://www.w3.org/2000/svg" width="1400" height="800" viewBox="0 0 1400 800">
  <rect width="1400" height="800" fill="#f8fafc"/>
  <text x="80" y="70" font-size="30" font-family="Segoe UI, Arial" font-weight="700" fill="#0f172a">TaskMatrix UI Wireframes</text>
  <text x="80" y="110" font-size="18" font-family="Segoe UI, Arial" fill="#475569">Three core viewports for the agile project management experience</text>

  <rect x="80" y="150" width="360" height="520" rx="24" fill="white" stroke="#cbd5e1" stroke-width="2"/>
  <rect x="80" y="150" width="360" height="90" rx="24" fill="#2563eb"/>
  <text x="120" y="200" font-size="24" font-family="Segoe UI, Arial" fill="white" font-weight="700">Auth Screen</text>
  <rect x="120" y="270" width="220" height="34" rx="8" fill="#e2e8f0"/>
  <rect x="120" y="320" width="220" height="34" rx="8" fill="#e2e8f0"/>
  <rect x="120" y="370" width="170" height="42" rx="10" fill="#2563eb"/>
  <text x="145" y="398" font-size="18" font-family="Segoe UI, Arial" fill="white">Login / Register</text>

  <rect x="520" y="150" width="360" height="520" rx="24" fill="white" stroke="#cbd5e1" stroke-width="2"/>
  <rect x="520" y="150" width="360" height="90" rx="24" fill="#0f766e"/>
  <text x="590" y="200" font-size="24" font-family="Segoe UI, Arial" fill="white" font-weight="700">Main Dashboard</text>
  <rect x="550" y="260" width="300" height="80" rx="14" fill="#ccfbf1"/>
  <rect x="550" y="360" width="140" height="120" rx="14" fill="#f1f5f9"/>
  <rect x="710" y="360" width="140" height="120" rx="14" fill="#f1f5f9"/>
  <rect x="550" y="500" width="300" height="110" rx="14" fill="#f8fafc" stroke="#e2e8f0"/>
  <text x="580" y="290" font-size="18" font-family="Segoe UI, Arial" fill="#0f172a">Overview cards</text>

  <rect x="960" y="150" width="360" height="520" rx="24" fill="white" stroke="#cbd5e1" stroke-width="2"/>
  <rect x="960" y="150" width="360" height="90" rx="24" fill="#7c3aed"/>
  <text x="1030" y="200" font-size="24" font-family="Segoe UI, Arial" fill="white" font-weight="700">Task Detail View</text>
  <rect x="1000" y="270" width="280" height="38" rx="10" fill="#ede9fe"/>
  <rect x="1000" y="330" width="280" height="70" rx="10" fill="#f5f3ff"/>
  <rect x="1000" y="420" width="120" height="40" rx="10" fill="#7c3aed"/>
  <rect x="1140" y="420" width="120" height="40" rx="10" fill="#c4b5fd"/>
  <rect x="1000" y="480" width="280" height="120" rx="10" fill="#faf5ff" stroke="#e9d5ff"/>
</svg>